<?xml version="1.0" encoding="UTF-8"?>
<svg xmlns="http://www.w3.org/2000/svg" viewBox="0 0 591.12 286.99">
  <defs>
    <style>
      .cls-1 {
        letter-spacing: 0em;
      }

      .cls-2 {
        fill: none;
        stroke: #fff200;
        stroke-width: .7px;
      }

      .cls-2, .cls-3, .cls-4 {
        stroke-miterlimit: 10;
      }

      .cls-5 {
        font-family: GeneralSansVariable-Extralight, 'General Sans Variable';
        font-size: 6.63px;
        font-variation-settings: 'wght' 200;
        font-weight: 200;
        stroke-width: .3px;
      }

      .cls-5, .cls-3, .cls-6, .cls-4 {
        stroke: #fff;
      }

      .cls-5, .cls-3, .cls-4 {
        fill: #fff;
      }

      .cls-3, .cls-4 {
        stroke-width: .5px;
      }

      .cls-7 {
        fill: #3e3e40;
      }

      .cls-8 {
        letter-spacing: -.08em;
      }

      .cls-9 {
        letter-spacing: -.03em;
      }

      .cls-10 {
        letter-spacing: .03em;
      }

      .cls-6 {
        fill: #434345;
      }

      .cls-11 {
        letter-spacing: -.07em;
      }

      .cls-4 {
        font-family: GeneralSansVariable-Regular, 'General Sans Variable';
        font-size: 14.18px;
        font-variation-settings: 'wght' 400;
      }

      .cls-12 {
        letter-spacing: -.02em;
      }
    </style>
  </defs>
  <g id="Layer_4" data-name="Layer 4">
    <rect class="cls-7" width="355.2" height="286.99"/>
  </g>
  <g id="Layer_2" data-name="Layer 2">
    <path class="cls-2" d="m68.47,57.11l6.03,43.23s35.66-2.58,31-20.33c0,0-3.1-18.26-37.03-22.91Z"/>
    <path class="cls-2" d="m82.36,74.1l2.18,9.07s8.96-.86,5.74-4.45c-3.27-1.75-7.92-4.62-7.92-4.62Z"/>
    <polyline class="cls-2" points="69.22 62.5 74.9 61.99 74.9 65.84 69.74 66.24"/>
    <polyline class="cls-2" points="70.71 73.18 75.99 72.73 77.31 76.69 71.47 78.64"/>
    <polyline class="cls-2" points="72.25 84.22 77.31 83 78.92 86.97 72.82 88.34"/>
    <polyline class="cls-2" points="73.51 93.3 79.38 92.76 81.21 96.78 74.14 97.76"/>
    <path class="cls-2" d="m83.75,60.69l-.47-8.74h-6.66l-1.04-5.51s9.48-2.41,20.85.63v6.04l-6.49-.82,1.04,11.58"/>
    <path class="cls-2" d="m86.67,98.32l.52,10.81s21.51,16.55,34.77-4.81l-7.76-47.73h6.11s3.36-3.79.09-6.89l-20.24.57s-2.18,4.13,1.44,6.55h4.08l5.74,41.74-14.64,2.3-1.07-5.6"/>
    <polyline class="cls-2" points="102.18 50.22 101.62 42.3 117.73 49.78"/>
    <path class="cls-2" d="m121.83,52.93l28.63,45.6-5.86-59.17-9.65.86-2.93-9.3s14.3,6.72,25.06-.34l1.38,17.4h-6.98s7.27,65.98,7.27,65.98h-6.87l-37.18-53.65"/>
    <line class="cls-2" x1="132.07" y1="97.32" x2="130.95" y2="83.74"/>
    <path class="cls-2" d="m125.33,58.51s6.13-13.46,21.02-1.41"/>
    <polyline class="cls-2" points="153.03 61.99 162.74 71.92 158.95 74.91 154.12 71.82"/>
    <line class="cls-2" x1="144.49" y1="89.15" x2="141.72" y2="64.08"/>
    <path class="cls-2" d="m135.08,74.03c.13.5-3.1-15.38,12.16-8.31"/>
    <polyline class="cls-2" points="155.14 81.12 163.78 81.12 157.41 101.67"/>
    <path class="cls-2" d="m157.61,103.44s-10.36,8.67-15.16,9.47c-8.42,1.41-19.67,5.41-22.73-22.41"/>
    <path class="cls-2" d="m132.07,97.32s3.87,8.82,10.38,3.02"/>
    <line class="cls-2" x1="143.6" y1="81.12" x2="139.53" y2="81.12"/>
    <polyline class="cls-2" points="152.01 53.84 180.09 53.84 180.09 65.64 168.48 66.4 169.61 73.94 192.49 72.66 192.49 82.98 169.42 85.51 170.37 92.25 190.6 91.31 191.35 106.19 157.6 104.13"/>
    <polyline class="cls-2" points="204.83 164.9 204.83 151.68 184.68 153.02 183.68 145.13 193.91 144.34 193.91 132 169.17 132 169.17 144.36"/>
    <polyline class="cls-2" points="168.57 183.25 203.83 186.74 203.17 171.18 185.35 172.16"/>
    <line class="cls-2" x1="180.09" y1="73.36" x2="180.09" y2="65.64"/>
    <polyline class="cls-2" points="180.09 69.49 180.09 50.22 212.57 50.22 213.43 52.18 214.7 57.02 214.7 109.9 180.09 109.9 180.09 106.28"/>
    <line class="cls-2" x1="180.09" y1="91.79" x2="180.09" y2="84.34"/>
    <polyline class="cls-2" points="198.71 109.9 198.71 116.36 213.52 116.36 213.52 109.9"/>
    <polyline class="cls-2" points="214.7 68.98 227.75 118.77 241.68 118.77 241.68 38.68 229.22 38.68 229.22 108.09 209.62 38.68 198.71 38.68 198.71 50.22"/>
    <g>
      <polyline class="cls-2" points="262.05 132.23 267.76 131.16 286.47 185.65 286.47 131.16 298.37 131.16 298.37 194.03 285.07 194.03 272.6 155.73 272.6 181.33"/>
      <path class="cls-2" d="m311.92,156.26l-.11-12.89c-.86-2.32-4.38-5.29-6.81-6.07s-5.07-.69-7.58-.2c-8.52,1.69-15.74,8.4-17.82,16.55-.71,2.8-.71,6.12,1.43,8.13.92.86,2.13,1.37,3.36,1.67,3.52.87,7.24.2,10.74-.75,3.5-.95,6.95-2.19,10.57-2.48s7.56.56,9.99,3.17c1.84,1.97,2.59,4.71,2.58,7.35-.01,3.44-.12,8.89-2.59,11.38-3.06,3.07-12.76,4.05-17.18,4.06"/>
    </g>
    <polyline class="cls-2" points="43.66 62.62 64.32 81.51 51.93 101.43"/>
    <g>
      <polygon class="cls-2" points="195.42 57.97 195.42 104.82 203.87 90.21 211.6 77.9 195.42 57.97"/>
      <line class="cls-2" x1="64.33" y1="81.49" x2="211.6" y2="77.9"/>
    </g>
    <polygon class="cls-2" points="50.21 61.93 43.49 70.2 40.05 67.1 46.59 58.83 50.21 61.93"/>
    <polygon class="cls-2" points="56.35 104.82 47.74 98.28 50.73 94.31 60.37 101.72 56.35 104.82"/>
    <polyline class="cls-2" points="43.49 70.2 50.78 70.08 57.33 61.82 50.21 61.93"/>
    <polyline class="cls-2" points="50.73 94.31 50.15 87.25 58.76 93.8 60.37 101.72"/>
    <polyline class="cls-2" points="119.76 148.51 137.7 165.93 126.94 184.3"/>
    <line class="cls-2" x1="137.71" y1="165.9" x2="252.5" y2="164.25"/>
    <polygon class="cls-2" points="125.44 147.87 119.61 155.5 116.61 152.64 122.3 145.01 125.44 147.87"/>
    <polygon class="cls-2" points="130.78 187.42 123.3 181.39 125.89 177.73 134.27 184.56 130.78 187.42"/>
    <polyline class="cls-2" points="119.61 155.5 125.94 155.39 131.63 147.77 125.44 147.87"/>
    <polyline class="cls-2" points="125.89 177.73 125.39 171.22 132.87 177.26 134.27 184.56"/>
    <path class="cls-2" d="m193.91,136.84l7.38-6.57,14.15,9.94s-3.13,27.45,1.5,50.32l-1.83.09c-4.43.21-8.24-3.5-8.67-8.46l-.51-5.92c-.28-3.25.15-5.07-2.75-5.07"/>
    <path class="cls-2" d="m198.05,164.99s6.29,8.84,16.38.09"/>
    <polyline class="cls-2" points="197.07 152.2 204.68 142.51 211.63 166.95"/>
    <line class="cls-2" x1="190.93" y1="144.57" x2="190.93" y2="152.61"/>
    <line class="cls-2" x1="191.63" y1="165.08" x2="191.63" y2="171.81"/>
    <polyline class="cls-2" points="191.63 185.53 191.63 191.6 203.08 191 202.58 186.61"/>
    <path class="cls-2" d="m262.05,132.23c0,6.48-6.63,18.23-10.28,13.33s-10.24-8.2-11.73-11.73c-2.52-5.97,5.25-8.15,11.73-8.15s10.28.08,10.28,6.56Z"/>
    <line class="cls-2" x1="250.81" y1="136.43" x2="256.02" y2="130.38"/>
    <line class="cls-2" x1="248.8" y1="129.33" x2="256.54" y2="137.07"/>
    <path class="cls-2" d="m248.8,149.7c11.19,20.55-5.82,26.58-5.82,26.58l29.63-6.56-23.81-20.02Z"/>
    <polyline class="cls-2" points="273.62 148.22 282.82 146.73 280.21 133.2 268.82 134.26"/>
    <line class="cls-2" x1="275.82" y1="154.64" x2="279.45" y2="154.34"/>
    <line class="cls-2" x1="280.21" y1="167.43" x2="286.47" y2="166.95"/>
    <line class="cls-2" x1="268.53" y1="190.63" x2="283.77" y2="189.97"/>
    <line class="cls-2" x1="267.8" y1="181.52" x2="286.28" y2="179.81"/>
    <path class="cls-2" d="m311.91,155.97s-4.7-9.45-13.54-3.06"/>
    <path class="cls-2" d="m298.37,166.48s9.61-3.5,10.34,3.07-10.34,8.27-10.34,8.27"/>
    <g>
      <path class="cls-2" d="m241.69,78.43c2.49-.63,4.99-1.21,7.57-1.39,3.74-.25,7.8.51,10.32,2.84,1.9,1.77,2.67,4.22,2.67,6.6-.01,3.09-.12,7.98-2.67,10.21-3.16,2.76-13.18,3.64-17.73,3.64"/>
      <path class="cls-2" d="m229.22,61.39c-3.33,2.63-5.81,6.03-6.91,9.76-.74,2.51-.73,5.5,1.48,7.3.95.77,2.2,1.23,3.47,1.5.55.12,1.11.21,1.67.27"/>
      <path class="cls-2" d="m255.68,73.48l-.11-11.57c-.89-2.08-4.52-4.75-7.03-5.45-2.19-.61-4.56-.63-6.85-.32"/>
    </g>
    <path class="cls-2" d="m255.68,73.22s-4.85-8.48-13.99-2.74"/>
    <path class="cls-2" d="m241.69,82.65s9.93-3.14,10.67,2.75-10.67,7.43-10.67,7.43"/>
  </g>
  <g id="Layer_3" data-name="Layer 3">
    <path class="cls-2" d="m139.14,136.84l8.49,49.32s40.31,1.06,36.59-23.34c-3.71-24.4-45.08-25.99-45.08-25.99Z"/>
    <path class="cls-2" d="m153.72,170.33l5.59-14.23,9.86,13.67s-8.22-3.07-15.45.56Z"/>
    <path class="cls-2" d="m215.87,184.63s30.18,1.05,27.05-20.9c-3.13-21.94-27.72-21.23-27.72-21.23"/>
    <path class="cls-2" d="m217.89,159.82l12.04,4.18-11.89,6.34s2.8-5.5-.15-10.51Z"/>
    <path class="cls-2" d="m223.84,184.05v10.87h45.1l-1.62-16.78c-9.56,12.04-26.75,6.51-26.75,6.51l-1.01-51.43c-7.17,9.98-15.72-2.93-15.72-2.93v12.54"/>
    <polygon class="cls-6" points="115.27 225.2 217.26 225.2 220.75 253.69 109.68 251.71 115.27 225.2"/>
    <text class="cls-4" transform="translate(169.16 244.64)"><tspan class="cls-9" x="0" y="0">S</tspan><tspan class="cls-11" x="8.74" y="0">T</tspan><tspan x="16.24" y="0">A</tspan><tspan class="cls-12" x="26.05" y="0">R</tspan><tspan x="34.85" y="0">T</tspan></text>
    <text class="cls-5" transform="translate(120.28 237.48) rotate(.55)"><tspan x="0" y="0">Click Here</tspan></text>
    <text class="cls-5" transform="translate(125.35 244.81) rotate(.55)"><tspan class="cls-8" x="0" y="0">T</tspan><tspan class="cls-1" x="3.27" y="0">o Sta</tspan><tspan class="cls-10" x="18.43" y="0">r</tspan><tspan x="20.77" y="0">t:</tspan></text>
    <polygon class="cls-3" points="157.85 234.42 157.74 246.07 165.21 239.98 157.85 234.42"/>
  </g>
</svg>